<svg version="1.1" id="Layer_1" xmlns="http://www.w3.org/2000/svg" xmlns:xlink="http://www.w3.org/1999/xlink" x="0px" y="0px"
	 width="100%" viewBox="0 0 512 512" enable-background="new 0 0 512 512" xml:space="preserve">
<path fill="#000000" opacity="1.000000" stroke="none" 
	d="
M215.000000,513.000000 
	C143.696487,513.000000 72.392967,513.000000 1.044727,513.000000 
	C1.044727,342.434509 1.044727,171.868988 1.044727,1.000000 
	C105.021820,1.000000 209.043930,1.000000 313.533020,1.468657 
	C314.000000,92.557083 314.063568,183.176941 313.954315,273.796570 
	C313.927734,295.870209 313.486755,317.947052 312.934814,340.014832 
	C312.662659,350.895416 310.216400,361.362030 306.196198,371.583405 
	C297.225372,394.391418 280.156860,406.521637 256.406647,408.840637 
	C232.849976,411.140747 210.945221,405.258179 191.432999,391.653687 
	C188.646835,389.711060 187.309662,389.882599 185.329987,392.140106 
	C179.806641,398.438629 174.259018,404.718719 168.595093,410.890564 
	C156.442535,424.132904 144.167694,437.263153 132.031097,450.519989 
	C126.514526,456.545746 121.207420,462.763275 115.875450,468.814209 
	C116.176964,469.392395 116.251915,469.767975 116.480301,469.940979 
	C131.688278,481.460754 147.970688,491.122345 165.696030,498.264618 
	C180.968491,504.418488 196.615189,509.187286 213.052002,511.076080 
	C213.765610,511.158081 214.353531,512.333740 215.000000,513.000000 
M152.969238,397.356506 
	C158.341385,391.366882 163.789978,385.442566 169.014130,379.326538 
	C169.937576,378.245422 170.774109,375.604492 170.209351,374.973022 
	C165.723785,369.957550 160.889771,365.253754 155.855316,360.142151 
	C131.793213,386.800934 108.328415,412.797913 84.701096,438.974976 
	C89.916710,444.431610 94.983238,449.732269 100.403046,455.402527 
	C102.345551,453.015045 104.070992,450.658997 106.033119,448.520081 
	C121.518501,431.640015 137.049011,414.801392 152.969238,397.356506 
z"/>
<path fill="#FFFFFF" opacity="1.000000" stroke="none" 
	d="
M215.468658,513.000000 
	C214.353531,512.333740 213.765610,511.158081 213.052002,511.076080 
	C196.615189,509.187286 180.968491,504.418488 165.696030,498.264618 
	C147.970688,491.122345 131.688278,481.460754 116.480301,469.940979 
	C116.251915,469.767975 116.176964,469.392395 115.875450,468.814209 
	C121.207420,462.763275 126.514526,456.545746 132.031097,450.519989 
	C144.167694,437.263153 156.442535,424.132904 168.595093,410.890564 
	C174.259018,404.718719 179.806641,398.438629 185.329987,392.140106 
	C187.309662,389.882599 188.646835,389.711060 191.432999,391.653687 
	C210.945221,405.258179 232.849976,411.140747 256.406647,408.840637 
	C280.156860,406.521637 297.225372,394.391418 306.196198,371.583405 
	C310.216400,361.362030 312.662659,350.895416 312.934814,340.014832 
	C313.486755,317.947052 313.927734,295.870209 313.954315,273.796570 
	C314.063568,183.176941 314.000000,92.557083 314.000000,1.468657 
	C351.687561,1.000000 389.375122,1.000000 427.531616,1.433316 
	C428.333710,4.764302 428.956696,7.661834 428.958069,10.559662 
	C429.007965,115.559456 428.981659,220.559265 429.018433,325.559082 
	C429.024414,342.671204 427.911255,359.633759 425.131927,376.571014 
	C421.601318,398.086090 415.033569,418.397888 403.967163,437.186371 
	C389.719757,461.375580 370.048492,480.066589 345.161713,492.866547 
	C325.999603,502.722168 305.484711,508.735504 283.969604,511.076874 
	C283.251801,511.154968 282.653809,512.334106 282.000000,513.000000 
	C259.979095,513.000000 237.958206,513.000000 215.468658,513.000000 
z"/>
<path fill="#000000" opacity="1.000000" stroke="none" 
	d="
M282.468628,513.000000 
	C282.653809,512.334106 283.251801,511.154968 283.969604,511.076874 
	C305.484711,508.735504 325.999603,502.722168 345.161713,492.866547 
	C370.048492,480.066589 389.719757,461.375580 403.967163,437.186371 
	C415.033569,418.397888 421.601318,398.086090 425.131927,376.571014 
	C427.911255,359.633759 429.024414,342.671204 429.018433,325.559082 
	C428.981659,220.559265 429.007965,115.559456 428.958069,10.559662 
	C428.956696,7.661834 428.333710,4.764302 428.000275,1.433316 
	C456.318359,1.000000 484.636719,1.000000 512.977539,1.000000 
	C512.977539,171.561523 512.977539,342.123047 512.977539,513.000000 
	C436.312714,513.000000 359.625031,513.000000 282.468628,513.000000 
z"/>
<path fill="#FFFFFF" opacity="1.000000" stroke="none" 
	d="
M152.767456,397.653259 
	C137.049011,414.801392 121.518501,431.640015 106.033119,448.520081 
	C104.070992,450.658997 102.345551,453.015045 100.403046,455.402527 
	C94.983238,449.732269 89.916710,444.431610 84.701096,438.974976 
	C108.328415,412.797913 131.793213,386.800934 155.855316,360.142151 
	C160.889771,365.253754 165.723785,369.957550 170.209351,374.973022 
	C170.774109,375.604492 169.937576,378.245422 169.014130,379.326538 
	C163.789978,385.442566 158.341385,391.366882 152.767456,397.653259 
z"/>
</svg>